<svg xmlns="http://www.w3.org/2000/svg" viewBox="0 0 512 512" width="512" height="512">
  <!-- Background -->
  <rect width="512" height="512" rx="100" fill="#07090f"/>
  <!-- Shuttlecock base (cork) -->
  <ellipse cx="256" cy="340" rx="28" ry="20" fill="#f97316"/>
  <!-- Shuttlecock body/skirt feathers -->
  <path d="M256 320 Q220 260 210 200 Q230 220 256 230 Q282 220 302 200 Q292 260 256 320Z" fill="white" opacity="0.95"/>
  <path d="M256 320 Q215 265 200 195" stroke="#e2e8f0" stroke-width="2" fill="none" opacity="0.6"/>
  <path d="M256 320 Q228 268 222 198" stroke="#e2e8f0" stroke-width="2" fill="none" opacity="0.6"/>
  <path d="M256 320 Q244 270 244 198" stroke="#e2e8f0" stroke-width="2" fill="none" opacity="0.6"/>
  <path d="M256 320 Q268 270 268 198" stroke="#e2e8f0" stroke-width="2" fill="none" opacity="0.6"/>
  <path d="M256 320 Q284 268 290 198" stroke="#e2e8f0" stroke-width="2" fill="none" opacity="0.6"/>
  <path d="M256 320 Q297 265 312 195" stroke="#e2e8f0" stroke-width="2" fill="none" opacity="0.6"/>
  <!-- Racket handle -->
  <rect x="248" y="340" width="16" height="80" rx="8" fill="#4ade80"/>
  <!-- Racket frame oval -->
  <ellipse cx="256" cy="170" rx="70" ry="50" fill="none" stroke="#4ade80" stroke-width="10"/>
  <!-- Racket strings horizontal -->
  <line x1="190" y1="155" x2="322" y2="155" stroke="#4ade80" stroke-width="2" opacity="0.5"/>
  <line x1="187" y1="170" x2="325" y2="170" stroke="#4ade80" stroke-width="2" opacity="0.5"/>
  <line x1="190" y1="185" x2="322" y2="185" stroke="#4ade80" stroke-width="2" opacity="0.5"/>
  <!-- Racket strings vertical -->
  <line x1="230" y1="122" x2="230" y2="218" stroke="#4ade80" stroke-width="2" opacity="0.5"/>
  <line x1="244" y1="120" x2="244" y2="220" stroke="#4ade80" stroke-width="2" opacity="0.5"/>
  <line x1="256" y1="120" x2="256" y2="220" stroke="#4ade80" stroke-width="2" opacity="0.5"/>
  <line x1="268" y1="120" x2="268" y2="220" stroke="#4ade80" stroke-width="2" opacity="0.5"/>
  <line x1="282" y1="122" x2="282" y2="218" stroke="#4ade80" stroke-width="2" opacity="0.5"/>
  <!-- Racket throat -->
  <path d="M230 218 Q256 238 282 218" fill="none" stroke="#4ade80" stroke-width="8"/>
  <rect x="248" y="234" width="16" height="100" rx="6" fill="#4ade80"/>
</svg>
